<svg width="1200" height="630" viewBox="0 0 1200 630" fill="none" xmlns="http://www.w3.org/2000/svg">
<g clip-path="url(#clip0_439_449)">
<path d="M1200 0H0V630H1200V0Z" fill="#334155"/>
<path d="M758.35 216.682H772.43V254.442L790.35 216.682H804.43L787.662 249.578L804.686 306.282H789.966L778.062 266.346L772.43 277.738V306.282H758.35V216.682Z" fill="white"/>
<path d="M703.725 216.682H721.389L735.085 270.314H735.341V216.682H747.885V306.282H733.421L716.525 240.874H716.269V306.282H703.725V216.682Z" fill="white"/>
<path d="M679.1 216.682H693.18V306.282H679.1V216.682Z" fill="white"/>
<path d="M635.1 216.682H649.18V293.482H672.348V306.282H635.1V216.682Z" fill="white"/>
<path d="M540.021 216.682H553.589L559.861 285.546H560.117L566.773 216.682H582.133L588.789 285.546H589.045L595.317 216.682H607.477L598.389 306.282H580.853L574.453 245.866H574.197L567.797 306.282H549.109L540.021 216.682Z" fill="white"/>
<path d="M496.85 216.682H535.25V229.482H510.93V253.162H530.258V265.962H510.93V293.482H535.25V306.282H496.85V216.682Z" fill="white"/>
<path d="M445.225 216.682H466.089C473.342 216.682 478.633 218.388 481.961 221.802C485.289 225.13 486.953 230.292 486.953 237.29V242.794C486.953 252.095 483.881 257.983 477.737 260.458V260.714C481.15 261.738 483.539 263.828 484.905 266.986C486.355 270.143 487.081 274.367 487.081 279.658V295.402C487.081 297.962 487.166 300.052 487.337 301.674C487.507 303.21 487.934 304.746 488.617 306.282H474.281C473.769 304.831 473.427 303.466 473.257 302.186C473.086 300.906 473.001 298.602 473.001 295.274V278.89C473.001 274.794 472.318 271.935 470.953 270.314C469.673 268.692 467.411 267.882 464.169 267.882H459.305V306.282H445.225V216.682ZM464.425 255.082C467.241 255.082 469.331 254.356 470.697 252.906C472.147 251.455 472.873 249.023 472.873 245.61V238.698C472.873 235.455 472.275 233.108 471.081 231.658C469.971 230.207 468.179 229.482 465.705 229.482H459.305V255.082H464.425Z" fill="white"/>
<path d="M416.064 307.562C409.323 307.562 404.16 305.642 400.576 301.802C397.077 297.962 395.328 292.543 395.328 285.546V237.418C395.328 230.42 397.077 225.002 400.576 221.162C404.16 217.322 409.323 215.402 416.064 215.402C422.805 215.402 427.925 217.322 431.424 221.162C435.008 225.002 436.8 230.42 436.8 237.418V246.89H423.488V236.522C423.488 230.975 421.141 228.202 416.448 228.202C411.755 228.202 409.408 230.975 409.408 236.522V286.57C409.408 292.031 411.755 294.762 416.448 294.762C421.141 294.762 423.488 292.031 423.488 286.57V272.874H436.8V285.546C436.8 292.543 435.008 297.962 431.424 301.802C427.925 305.642 422.805 307.562 416.064 307.562Z" fill="white"/>
<path d="M721.916 363.069H728.7L731.836 397.501H731.964L735.292 363.069H742.972L746.3 397.501H746.428L749.564 363.069H755.644L751.1 407.869H742.332L739.132 377.661H739.004L735.804 407.869H726.46L721.916 363.069Z" fill="white"/>
<path d="M700.329 363.069H719.529V369.469H707.369V381.309H717.033V387.709H707.369V401.469H719.529V407.869H700.329V363.069Z" fill="white"/>
<path d="M674.517 363.069H684.949C688.575 363.069 691.221 363.922 692.885 365.629C694.549 367.293 695.381 369.874 695.381 373.373V376.125C695.381 380.776 693.845 383.72 690.773 384.957V385.085C692.479 385.597 693.674 386.642 694.357 388.221C695.082 389.8 695.445 391.912 695.445 394.557V402.429C695.445 403.709 695.487 404.754 695.573 405.565C695.658 406.333 695.871 407.101 696.213 407.869H689.045C688.789 407.144 688.618 406.461 688.533 405.821C688.447 405.181 688.405 404.029 688.405 402.365V394.173C688.405 392.125 688.063 390.696 687.381 389.885C686.741 389.074 685.61 388.669 683.989 388.669H681.557V407.869H674.517V363.069ZM684.117 382.269C685.525 382.269 686.57 381.906 687.253 381.181C687.978 380.456 688.341 379.24 688.341 377.533V374.077C688.341 372.456 688.042 371.282 687.445 370.557C686.89 369.832 685.994 369.469 684.757 369.469H681.557V382.269H684.117Z" fill="white"/>
<path d="M659.937 408.509C656.567 408.509 653.985 407.549 652.193 405.629C650.444 403.709 649.569 401 649.569 397.501V373.437C649.569 369.938 650.444 367.229 652.193 365.309C653.985 363.389 656.567 362.429 659.937 362.429C663.308 362.429 665.868 363.389 667.617 365.309C669.409 367.229 670.305 369.938 670.305 373.437V378.173H663.649V372.989C663.649 370.216 662.476 368.829 660.129 368.829C657.783 368.829 656.609 370.216 656.609 372.989V398.013C656.609 400.744 657.783 402.109 660.129 402.109C662.476 402.109 663.649 400.744 663.649 398.013V391.165H670.305V397.501C670.305 401 669.409 403.709 667.617 405.629C665.868 407.549 663.308 408.509 659.937 408.509Z" fill="white"/>
<path d="M613.954 363.069H624.386C628.013 363.069 630.658 363.922 632.322 365.629C633.986 367.293 634.818 369.874 634.818 373.373V376.125C634.818 380.776 633.282 383.72 630.21 384.957V385.085C631.917 385.597 633.111 386.642 633.794 388.221C634.519 389.8 634.882 391.912 634.882 394.557V402.429C634.882 403.709 634.925 404.754 635.01 405.565C635.095 406.333 635.309 407.101 635.65 407.869H628.482C628.226 407.144 628.055 406.461 627.97 405.821C627.885 405.181 627.842 404.029 627.842 402.365V394.173C627.842 392.125 627.501 390.696 626.818 389.885C626.178 389.074 625.047 388.669 623.426 388.669H620.994V407.869H613.954V363.069ZM623.554 382.269C624.962 382.269 626.007 381.906 626.69 381.181C627.415 380.456 627.778 379.24 627.778 377.533V374.077C627.778 372.456 627.479 371.282 626.882 370.557C626.327 369.832 625.431 369.469 624.194 369.469H620.994V382.269H623.554Z" fill="white"/>
<path d="M598.444 408.509C595.031 408.509 592.428 407.549 590.636 405.629C588.844 403.666 587.948 400.872 587.948 397.245V363.069H594.988V397.757C594.988 399.293 595.287 400.402 595.884 401.085C596.524 401.768 597.42 402.109 598.572 402.109C599.724 402.109 600.599 401.768 601.196 401.085C601.836 400.402 602.156 399.293 602.156 397.757V363.069H608.94V397.245C608.94 400.872 608.044 403.666 606.252 405.629C604.46 407.549 601.858 408.509 598.444 408.509Z" fill="white"/>
<path d="M572.755 408.509C569.299 408.509 566.654 407.528 564.819 405.565C562.985 403.602 562.067 400.829 562.067 397.245V373.693C562.067 370.109 562.985 367.336 564.819 365.373C566.654 363.41 569.299 362.429 572.755 362.429C576.211 362.429 578.857 363.41 580.691 365.373C582.526 367.336 583.443 370.109 583.443 373.693V397.245C583.443 400.829 582.526 403.602 580.691 405.565C578.857 407.528 576.211 408.509 572.755 408.509ZM572.755 402.109C575.187 402.109 576.403 400.637 576.403 397.693V373.245C576.403 370.301 575.187 368.829 572.755 368.829C570.323 368.829 569.107 370.301 569.107 373.245V397.693C569.107 400.637 570.323 402.109 572.755 402.109Z" fill="white"/>
<path d="M544.981 388.797L536.469 363.069H543.957L548.757 379.517H548.885L553.685 363.069H560.533L552.021 388.797V407.869H544.981V388.797Z" fill="white"/>
<path d="M500.954 363.069H509.786L516.634 389.885H516.762V363.069H523.034V407.869H515.802L507.354 375.165H507.226V407.869H500.954V363.069Z" fill="white"/>
<path d="M488.642 363.069H495.682V407.869H488.642V363.069Z" fill="white"/>
<path d="M473.193 408.509C469.737 408.509 467.092 407.528 465.257 405.565C463.422 403.602 462.505 400.829 462.505 397.245V373.693C462.505 370.109 463.422 367.336 465.257 365.373C467.092 363.41 469.737 362.429 473.193 362.429C476.649 362.429 479.294 363.41 481.129 365.373C482.964 367.336 483.881 370.109 483.881 373.693V397.245C483.881 400.829 482.964 403.602 481.129 405.565C479.294 407.528 476.649 408.509 473.193 408.509ZM473.193 402.109C475.625 402.109 476.841 400.637 476.841 397.693V373.245C476.841 370.301 475.625 368.829 473.193 368.829C470.761 368.829 469.545 370.301 469.545 373.245V397.693C469.545 400.637 470.761 402.109 473.193 402.109Z" fill="white"/>
<path d="M447.743 408.125C446.463 408.125 445.375 408.04 444.479 407.869V401.469C445.162 401.64 445.93 401.725 446.783 401.725C448.191 401.725 449.237 401.384 449.919 400.701C450.602 399.976 450.943 398.888 450.943 397.437V363.069H457.983V397.245C457.983 400.914 457.13 403.645 455.423 405.437C453.759 407.229 451.199 408.125 447.743 408.125Z" fill="white"/>
<path d="M866.188 474.982H870.924L873.996 498.15H874.082L877.154 474.982H881.463L876.94 504.849H870.711L866.188 474.982Z" fill="#E2E8F0"/>
<path d="M851.926 474.982H864.726V479.249H856.619V487.142H863.062V491.409H856.619V500.582H864.726V504.849H851.926V474.982Z" fill="#E2E8F0"/>
<path d="M834.593 474.982H841.761C844.093 474.982 845.843 475.608 847.009 476.859C848.175 478.111 848.758 479.945 848.758 482.363V497.467C848.758 499.885 848.175 501.72 847.009 502.971C845.843 504.223 844.093 504.849 841.761 504.849H834.593V474.982ZM841.675 500.582C842.443 500.582 843.027 500.354 843.425 499.899C843.851 499.444 844.065 498.705 844.065 497.681V482.15C844.065 481.126 843.851 480.386 843.425 479.931C843.027 479.476 842.443 479.249 841.675 479.249H839.286V500.582H841.675Z" fill="#E2E8F0"/>
<path d="M826.551 500.326H831.073V504.849H826.551V500.326Z" fill="#E2E8F0"/>
<path d="M808.343 474.982H814.231L818.796 492.859H818.881V474.982H823.063V504.849H818.241L812.609 483.046H812.524V504.849H808.343V474.982Z" fill="#E2E8F0"/>
<path d="M798.043 505.275C795.739 505.275 793.976 504.621 792.753 503.313C791.53 502.004 790.918 500.155 790.918 497.766V482.065C790.918 479.675 791.53 477.826 792.753 476.518C793.976 475.209 795.739 474.555 798.043 474.555C800.347 474.555 802.111 475.209 803.334 476.518C804.557 477.826 805.169 479.675 805.169 482.065V497.766C805.169 500.155 804.557 502.004 803.334 503.313C802.111 504.621 800.347 505.275 798.043 505.275ZM798.043 501.009C799.665 501.009 800.475 500.027 800.475 498.065V481.766C800.475 479.803 799.665 478.822 798.043 478.822C796.422 478.822 795.611 479.803 795.611 481.766V498.065C795.611 500.027 796.422 501.009 798.043 501.009Z" fill="#E2E8F0"/>
<path d="M779.553 479.249H774.646V474.982H789.153V479.249H784.246V504.849H779.553V479.249Z" fill="#E2E8F0"/>
<path d="M757.676 474.982H763.564L768.129 492.859H768.214V474.982H772.396V504.849H767.574L761.942 483.046H761.857V504.849H757.676V474.982Z" fill="#E2E8F0"/>
<path d="M742.176 474.982H754.976V479.249H746.869V487.142H753.312V491.409H746.869V500.582H754.976V504.849H742.176V474.982Z" fill="#E2E8F0"/>
<path d="M724.926 474.982H732.008C734.426 474.982 736.19 475.551 737.299 476.689C738.408 477.798 738.963 479.519 738.963 481.851V483.046C738.963 484.582 738.707 485.833 738.195 486.801C737.712 487.768 736.958 488.465 735.934 488.891V488.977C738.266 489.773 739.432 491.85 739.432 495.206V497.766C739.432 500.07 738.821 501.834 737.598 503.057C736.403 504.251 734.64 504.849 732.307 504.849H724.926V474.982ZM731.454 487.142C732.392 487.142 733.089 486.9 733.544 486.417C734.028 485.933 734.27 485.122 734.27 483.985V482.321C734.27 481.24 734.071 480.457 733.672 479.974C733.303 479.49 732.705 479.249 731.88 479.249H729.619V487.142H731.454ZM732.307 500.582C733.132 500.582 733.744 500.369 734.142 499.942C734.54 499.487 734.739 498.719 734.739 497.638V495.035C734.739 493.67 734.497 492.731 734.014 492.219C733.559 491.679 732.791 491.409 731.71 491.409H729.619V500.582H732.307Z" fill="#E2E8F0"/>
<path d="M713.053 479.249H708.146V474.982H722.653V479.249H717.746V504.849H713.053V479.249Z" fill="#E2E8F0"/>
<path d="M697.095 479.249H692.188V474.982H706.695V479.249H701.788V504.849H697.095V479.249Z" fill="#E2E8F0"/>
<path d="M683.293 505.275C680.989 505.275 679.226 504.621 678.003 503.313C676.78 502.004 676.168 500.155 676.168 497.766V482.065C676.168 479.675 676.78 477.826 678.003 476.518C679.226 475.209 680.989 474.555 683.293 474.555C685.597 474.555 687.361 475.209 688.584 476.518C689.807 477.826 690.419 479.675 690.419 482.065V497.766C690.419 500.155 689.807 502.004 688.584 503.313C687.361 504.621 685.597 505.275 683.293 505.275ZM683.293 501.009C684.915 501.009 685.725 500.027 685.725 498.065V481.766C685.725 479.803 684.915 478.822 683.293 478.822C681.672 478.822 680.861 479.803 680.861 481.766V498.065C680.861 500.027 681.672 501.009 683.293 501.009Z" fill="#E2E8F0"/>
<path d="M666.706 505.275C664.459 505.275 662.738 504.635 661.543 503.355C660.377 502.075 659.794 500.269 659.794 497.937V481.894C659.794 479.561 660.377 477.755 661.543 476.475C662.738 475.195 664.459 474.555 666.706 474.555C668.953 474.555 670.66 475.195 671.826 476.475C673.021 477.755 673.618 479.561 673.618 481.894V485.051H669.181V481.595C669.181 479.746 668.398 478.822 666.834 478.822C665.27 478.822 664.487 479.746 664.487 481.595V498.278C664.487 500.098 665.27 501.009 666.834 501.009C668.398 501.009 669.181 500.098 669.181 498.278V493.713H673.618V497.937C673.618 500.269 673.021 502.075 671.826 503.355C670.66 504.635 668.953 505.275 666.706 505.275Z" fill="#E2E8F0"/>
<path d="M650.319 505.275C648.044 505.275 646.323 504.635 645.157 503.355C643.99 502.047 643.407 500.184 643.407 497.766V496.059H647.845V498.107C647.845 500.041 648.655 501.009 650.277 501.009C651.073 501.009 651.67 500.781 652.069 500.326C652.495 499.842 652.709 499.074 652.709 498.022C652.709 496.77 652.424 495.675 651.855 494.737C651.286 493.769 650.234 492.617 648.698 491.281C646.764 489.574 645.413 488.038 644.645 486.673C643.877 485.279 643.493 483.714 643.493 481.979C643.493 479.618 644.09 477.798 645.285 476.518C646.479 475.209 648.214 474.555 650.49 474.555C652.737 474.555 654.429 475.209 655.567 476.518C656.733 477.798 657.317 479.647 657.317 482.065V483.302H652.879V481.766C652.879 480.742 652.68 480.002 652.282 479.547C651.884 479.064 651.301 478.822 650.533 478.822C648.968 478.822 648.186 479.775 648.186 481.681C648.186 482.761 648.47 483.771 649.039 484.71C649.637 485.649 650.703 486.786 652.239 488.123C654.202 489.83 655.553 491.38 656.293 492.774C657.032 494.168 657.402 495.803 657.402 497.681C657.402 500.127 656.79 502.004 655.567 503.313C654.373 504.621 652.623 505.275 650.319 505.275Z" fill="#E2E8F0"/>
<path d="M636.176 500.326H640.698V504.849H636.176V500.326Z" fill="#E2E8F0"/>
<path d="M618.301 474.982H622.994V487.569L628.967 474.982H633.661L628.071 485.947L633.746 504.849H628.839L624.871 491.537L622.994 495.334V504.849H618.301V474.982Z" fill="#E2E8F0"/>
<path d="M600.093 474.982H605.981L610.546 492.859H610.631V474.982H614.813V504.849H609.991L604.359 483.046H604.274V504.849H600.093V474.982Z" fill="#E2E8F0"/>
<path d="M591.884 474.982H596.577V504.849H591.884V474.982Z" fill="#E2E8F0"/>
<path d="M577.218 474.982H581.911V500.582H589.634V504.849H577.218V474.982Z" fill="#E2E8F0"/>
<path d="M565.035 487.782H574.422V492.049H565.035V487.782Z" fill="#E2E8F0"/>
<path d="M541.191 474.982H545.714L547.805 497.937H547.89L550.109 474.982H555.229L557.447 497.937H557.533L559.623 474.982H563.677L560.647 504.849H554.802L552.669 484.71H552.583L550.45 504.849H544.221L541.191 474.982Z" fill="#E2E8F0"/>
<path d="M526.801 474.982H539.601V479.249H531.494V487.142H537.937V491.409H531.494V500.582H539.601V504.849H526.801V474.982Z" fill="#E2E8F0"/>
<path d="M509.593 474.982H516.547C518.965 474.982 520.729 475.551 521.838 476.689C522.947 477.798 523.502 479.519 523.502 481.851V483.686C523.502 486.786 522.478 488.749 520.43 489.574V489.659C521.568 490.001 522.364 490.698 522.819 491.75C523.303 492.802 523.545 494.21 523.545 495.974V501.222C523.545 502.075 523.573 502.772 523.63 503.313C523.687 503.825 523.829 504.337 524.057 504.849H519.278C519.107 504.365 518.994 503.91 518.937 503.483C518.88 503.057 518.851 502.289 518.851 501.179V495.718C518.851 494.353 518.624 493.4 518.169 492.859C517.742 492.319 516.988 492.049 515.907 492.049H514.286V504.849H509.593V474.982ZM515.993 487.782C516.931 487.782 517.628 487.54 518.083 487.057C518.567 486.573 518.809 485.762 518.809 484.625V482.321C518.809 481.24 518.61 480.457 518.211 479.974C517.842 479.49 517.244 479.249 516.419 479.249H514.286V487.782H515.993Z" fill="#E2E8F0"/>
<path d="M499.872 505.275C497.625 505.275 495.904 504.635 494.709 503.355C493.543 502.075 492.96 500.269 492.96 497.937V481.894C492.96 479.561 493.543 477.755 494.709 476.475C495.904 475.195 497.625 474.555 499.872 474.555C502.119 474.555 503.826 475.195 504.992 476.475C506.187 477.755 506.784 479.561 506.784 481.894V485.051H502.347V481.595C502.347 479.746 501.564 478.822 500 478.822C498.436 478.822 497.653 479.746 497.653 481.595V498.278C497.653 500.098 498.436 501.009 500 501.009C501.564 501.009 502.347 500.098 502.347 498.278V493.713H506.784V497.937C506.784 500.269 506.187 502.075 504.992 503.355C503.826 504.635 502.119 505.275 499.872 505.275Z" fill="#E2E8F0"/>
<path d="M481.076 487.782H490.463V492.049H481.076V487.782Z" fill="#E2E8F0"/>
<path d="M464.426 474.982H471.594C473.926 474.982 475.676 475.608 476.842 476.859C478.008 478.111 478.591 479.945 478.591 482.363V497.467C478.591 499.885 478.008 501.72 476.842 502.971C475.676 504.223 473.926 504.849 471.594 504.849H464.426V474.982ZM471.508 500.582C472.276 500.582 472.86 500.354 473.258 499.899C473.684 499.444 473.898 498.705 473.898 497.681V482.15C473.898 481.126 473.684 480.386 473.258 479.931C472.86 479.476 472.276 479.249 471.508 479.249H469.119V500.582H471.508Z" fill="#E2E8F0"/>
<path d="M448.926 474.982H461.726V479.249H453.619V487.142H460.062V491.409H453.619V500.582H461.726V504.849H448.926V474.982Z" fill="#E2E8F0"/>
<path d="M438.915 505.275C436.64 505.275 434.905 504.635 433.71 503.355C432.515 502.047 431.918 500.184 431.918 497.766V482.065C431.918 479.647 432.515 477.798 433.71 476.518C434.905 475.209 436.64 474.555 438.915 474.555C441.191 474.555 442.926 475.209 444.121 476.518C445.315 477.798 445.913 479.647 445.913 482.065V484.625H441.475V481.766C441.475 479.803 440.665 478.822 439.043 478.822C437.422 478.822 436.611 479.803 436.611 481.766V498.107C436.611 500.041 437.422 501.009 439.043 501.009C440.665 501.009 441.475 500.041 441.475 498.107V492.262H439.129V487.995H445.913V497.766C445.913 500.184 445.315 502.047 444.121 503.355C442.926 504.635 441.191 505.275 438.915 505.275Z" fill="#E2E8F0"/>
<path d="M415.051 474.982H422.005C424.423 474.982 426.187 475.551 427.296 476.689C428.405 477.798 428.96 479.519 428.96 481.851V483.686C428.96 486.786 427.936 488.749 425.888 489.574V489.659C427.026 490.001 427.822 490.698 428.277 491.75C428.761 492.802 429.003 494.21 429.003 495.974V501.222C429.003 502.075 429.031 502.772 429.088 503.313C429.145 503.825 429.287 504.337 429.515 504.849H424.736C424.565 504.365 424.452 503.91 424.395 503.483C424.338 503.057 424.309 502.289 424.309 501.179V495.718C424.309 494.353 424.082 493.4 423.627 492.859C423.2 492.319 422.446 492.049 421.365 492.049H419.744V504.849H415.051V474.982ZM421.451 487.782C422.389 487.782 423.086 487.54 423.541 487.057C424.025 486.573 424.267 485.762 424.267 484.625V482.321C424.267 481.24 424.068 480.457 423.669 479.974C423.3 479.49 422.702 479.249 421.877 479.249H419.744V487.782H421.451Z" fill="#E2E8F0"/>
<path d="M404.751 505.275C402.447 505.275 400.684 504.621 399.461 503.313C398.238 502.004 397.626 500.155 397.626 497.766V482.065C397.626 479.675 398.238 477.826 399.461 476.518C400.684 475.209 402.447 474.555 404.751 474.555C407.055 474.555 408.819 475.209 410.042 476.518C411.265 477.826 411.877 479.675 411.877 482.065V497.766C411.877 500.155 411.265 502.004 410.042 503.313C408.819 504.621 407.055 505.275 404.751 505.275ZM404.751 501.009C406.373 501.009 407.183 500.027 407.183 498.065V481.766C407.183 479.803 406.373 478.822 404.751 478.822C403.13 478.822 402.319 479.803 402.319 481.766V498.065C402.319 500.027 403.13 501.009 404.751 501.009Z" fill="#E2E8F0"/>
<path d="M383.301 474.982H395.717V479.249H387.994V487.569H394.053V491.835H387.994V504.849H383.301V474.982Z" fill="#E2E8F0"/>
<path d="M366.092 474.982H373.046C375.464 474.982 377.228 475.551 378.337 476.689C379.446 477.798 380.001 479.519 380.001 481.851V483.686C380.001 486.786 378.977 488.749 376.929 489.574V489.659C378.067 490.001 378.863 490.698 379.318 491.75C379.802 492.802 380.044 494.21 380.044 495.974V501.222C380.044 502.075 380.072 502.772 380.129 503.313C380.186 503.825 380.328 504.337 380.556 504.849H375.777C375.606 504.365 375.493 503.91 375.436 503.483C375.379 503.057 375.35 502.289 375.35 501.179V495.718C375.35 494.353 375.123 493.4 374.668 492.859C374.241 492.319 373.487 492.049 372.406 492.049H370.785V504.849H366.092V474.982ZM372.492 487.782C373.43 487.782 374.127 487.54 374.582 487.057C375.066 486.573 375.308 485.762 375.308 484.625V482.321C375.308 481.24 375.109 480.457 374.71 479.974C374.341 479.49 373.743 479.249 372.918 479.249H370.785V487.782H372.492Z" fill="#E2E8F0"/>
<path d="M352.593 474.982H358.951L363.815 504.849H359.122L358.268 498.918V499.003H352.935L352.081 504.849H347.729L352.593 474.982ZM357.714 494.95L355.623 480.187H355.537L353.489 494.95H357.714Z" fill="#E2E8F0"/>
<path d="M339.053 479.249H334.146V474.982H348.653V479.249H343.746V504.849H339.053V479.249Z" fill="#E2E8F0"/>
<path d="M325.61 505.275C323.335 505.275 321.614 504.635 320.448 503.355C319.281 502.047 318.698 500.184 318.698 497.766V496.059H323.136V498.107C323.136 500.041 323.946 501.009 325.568 501.009C326.364 501.009 326.961 500.781 327.36 500.326C327.786 499.842 328 499.074 328 498.022C328 496.77 327.715 495.675 327.146 494.737C326.577 493.769 325.525 492.617 323.989 491.281C322.055 489.574 320.704 488.038 319.936 486.673C319.168 485.279 318.784 483.714 318.784 481.979C318.784 479.618 319.381 477.798 320.576 476.518C321.77 475.209 323.505 474.555 325.781 474.555C328.028 474.555 329.72 475.209 330.858 476.518C332.024 477.798 332.608 479.647 332.608 482.065V483.302H328.17V481.766C328.17 480.742 327.971 480.002 327.573 479.547C327.175 479.064 326.592 478.822 325.824 478.822C324.259 478.822 323.477 479.775 323.477 481.681C323.477 482.761 323.761 483.771 324.33 484.71C324.928 485.649 325.994 486.786 327.53 488.123C329.493 489.83 330.844 491.38 331.584 492.774C332.323 494.168 332.693 495.803 332.693 497.681C332.693 500.127 332.081 502.004 330.858 503.313C329.664 504.621 327.914 505.275 325.61 505.275Z" fill="#E2E8F0"/>
<path d="M547.804 160.478L569.801 148.459L591.797 160.478V184.517L569.801 196.537L547.804 184.517V160.478Z" fill="#CA8A04" stroke="#CA8A04" stroke-width="5.60906" stroke-linejoin="round"/>
<path d="M608.203 160.478L630.199 148.459L652.195 160.478V184.517L630.199 196.537L608.203 184.517V160.478Z" fill="#CA8A04" stroke="#CA8A04" stroke-width="5.60906" stroke-linejoin="round"/>
<path d="M578.003 111.824L600 99.8044L621.996 111.824V135.863L600 147.883L578.003 135.863V111.824Z" fill="#CA8A04" stroke="#CA8A04" stroke-width="5.60906" stroke-linejoin="round"/>
<path d="M1166.31 646.453L1135.99 663.02L1105.67 646.453V613.317L1135.99 596.75L1166.31 613.317V646.453Z" fill="white" stroke="#334155" stroke-width="3.37378"/>
<path d="M1134.3 593.962L1103.98 610.53L1073.66 593.962V560.827L1103.98 544.259L1134.3 560.827V593.962Z" fill="white" stroke="#334155" stroke-width="3.37378"/>
<path d="M1166.31 541.472L1135.99 558.039L1105.67 541.472V508.336L1135.99 491.769L1166.31 508.336V541.472Z" fill="white" stroke="#334155" stroke-width="3.37378"/>
<path d="M1134.3 488.981L1103.98 505.549L1073.66 488.981V455.846L1103.98 439.279L1134.3 455.846V488.981Z" fill="white" stroke="#334155" stroke-width="3.37378"/>
<path d="M1230.32 646.453L1200 663.02L1169.68 646.453V613.317L1200 596.75L1230.32 613.317V646.453Z" fill="white" stroke="#334155" stroke-width="3.37378"/>
<path d="M1198.31 593.962L1167.99 610.53L1137.67 593.962V560.827L1167.99 544.259L1198.31 560.827V593.962Z" fill="white" stroke="#334155" stroke-width="3.37378"/>
<path d="M1230.32 541.472L1200 558.039L1169.68 541.472V508.336L1200 491.769L1230.32 508.336V541.472Z" fill="white" stroke="#334155" stroke-width="3.37378"/>
<path d="M1198.31 488.981L1167.99 505.549L1137.67 488.981V455.846L1167.99 439.279L1198.31 455.846V488.981Z" fill="white" stroke="#334155" stroke-width="3.37378"/>
<path d="M1102.3 646.453L1071.98 663.02L1041.66 646.453V613.317L1071.98 596.75L1102.3 613.317V646.453Z" fill="white" stroke="#334155" stroke-width="3.37378"/>
<path d="M1166.31 436.491L1135.99 453.059L1105.67 436.491V403.356L1135.99 386.788L1166.31 403.356V436.491Z" fill="white" stroke="#334155" stroke-width="3.37378"/>
<path d="M1134.3 384L1103.98 400.568L1073.66 384V350.865L1103.98 334.298L1134.3 350.865V384Z" fill="white" stroke="#334155" stroke-width="3.37378"/>
<path d="M1166.31 331.51L1135.99 348.078L1105.67 331.51V298.375L1135.99 281.807L1166.31 298.375V331.51Z" fill="white" stroke="#334155" stroke-width="3.37378"/>
<path d="M1134.3 279.02L1103.98 295.587L1073.66 279.02V245.885L1103.98 229.317L1134.3 245.885V279.02Z" fill="white" stroke="#334155" stroke-width="3.37378"/>
<path d="M1230.32 436.491L1200 453.059L1169.68 436.491V403.356L1200 386.788L1230.32 403.356V436.491Z" fill="white" stroke="#334155" stroke-width="3.37378"/>
<path d="M1198.31 384L1167.99 400.568L1137.67 384V350.865L1167.99 334.298L1198.31 350.865V384Z" fill="white" stroke="#334155" stroke-width="3.37378"/>
<path d="M1230.32 331.51L1200 348.078L1169.68 331.51V298.375L1200 281.807L1230.32 298.375V331.51Z" fill="white" stroke="#334155" stroke-width="3.37378"/>
<path d="M1198.31 279.02L1167.99 295.587L1137.67 279.02V245.885L1167.99 229.317L1198.31 245.885V279.02Z" fill="white" stroke="#334155" stroke-width="3.37378"/>
<path d="M1166.31 226.529L1135.99 243.097L1105.67 226.529V193.394L1135.99 176.827L1166.31 193.394V226.529Z" fill="white" stroke="#334155" stroke-width="3.37378"/>
<path d="M1134.3 174.039L1103.98 190.607L1073.66 174.039V140.904L1103.98 124.336L1134.3 140.904V174.039Z" fill="white" stroke="#334155" stroke-width="3.37378"/>
<path d="M1166.31 121.549L1135.99 138.116L1105.67 121.549V88.4135L1135.99 71.8459L1166.31 88.4135V121.549Z" fill="white" stroke="#334155" stroke-width="3.37378"/>
<path d="M1134.3 69.0584L1103.98 85.6261L1073.66 69.0584V35.9232L1103.98 19.3555L1134.3 35.9232V69.0584Z" fill="white" stroke="#334155" stroke-width="3.37378"/>
<path d="M1230.32 226.529L1200 243.097L1169.68 226.529V193.394L1200 176.827L1230.32 193.394V226.529Z" fill="white" stroke="#334155" stroke-width="3.37378"/>
<path d="M1198.31 174.039L1167.99 190.607L1137.67 174.039V140.904L1167.99 124.336L1198.31 140.904V174.039Z" fill="white" stroke="#334155" stroke-width="3.37378"/>
<path d="M1230.32 121.549L1200 138.116L1169.68 121.549V88.4135L1200 71.8459L1230.32 88.4135V121.549Z" fill="white" stroke="#334155" stroke-width="3.37378"/>
<path d="M1198.31 69.0584L1167.99 85.6261L1137.67 69.0584V35.9232L1167.99 19.3555L1198.31 35.9232V69.0584Z" fill="white" stroke="#334155" stroke-width="3.37378"/>
<path d="M1166.31 16.5681L1135.99 33.1357L1105.67 16.5681V-16.5672L1135.99 -33.1348L1166.31 -16.5672V16.5681Z" fill="white" stroke="#334155" stroke-width="3.37378"/>
<path d="M1230.32 16.5681L1200 33.1357L1169.68 16.5681V-16.5672L1200 -33.1348L1230.32 -16.5672V16.5681Z" fill="white" stroke="#334155" stroke-width="3.37378"/>
<path d="M1102.3 16.5681L1071.98 33.1357L1041.66 16.5681V-16.5672L1071.98 -33.1348L1102.3 -16.5672V16.5681Z" fill="white" stroke="#334155" stroke-width="3.37378"/>
<path d="M33.6924 646.453L64.0119 663.02L94.3313 646.453V613.317L64.0119 596.75L33.6924 613.317V646.453Z" fill="white" stroke="#334155" stroke-width="3.37378"/>
<path d="M65.6982 593.962L96.0176 610.53L126.337 593.962V560.827L96.0176 544.259L65.6982 560.827V593.962Z" fill="white" stroke="#334155" stroke-width="3.37378"/>
<path d="M33.6924 541.472L64.0119 558.039L94.3313 541.472V508.336L64.0119 491.769L33.6924 508.336V541.472Z" fill="white" stroke="#334155" stroke-width="3.37378"/>
<path d="M65.6982 488.981L96.0176 505.549L126.337 488.981V455.846L96.0176 439.279L65.6982 455.846V488.981Z" fill="white" stroke="#334155" stroke-width="3.37378"/>
<path d="M-30.3203 646.453L-0.000902176 663.02L30.3185 646.453V613.317L-0.000902176 596.75L-30.3203 613.317V646.453Z" fill="white" stroke="#334155" stroke-width="3.37378"/>
<path d="M1.68555 593.962L32.0049 610.53L62.3244 593.962V560.827L32.0049 544.259L1.68555 560.827V593.962Z" fill="white" stroke="#334155" stroke-width="3.37378"/>
<path d="M-30.3203 541.472L-0.000902176 558.039L30.3185 541.472V508.336L-0.000902176 491.769L-30.3203 508.336V541.472Z" fill="white" stroke="#334155" stroke-width="3.37378"/>
<path d="M1.68555 488.981L32.0049 505.549L62.3244 488.981V455.846L32.0049 439.279L1.68555 455.846V488.981Z" fill="white" stroke="#334155" stroke-width="3.37378"/>
<path d="M97.7051 646.453L128.024 663.02L158.344 646.453V613.317L128.024 596.75L97.7051 613.317V646.453Z" fill="white" stroke="#334155" stroke-width="3.37378"/>
<path d="M33.6924 436.491L64.0119 453.059L94.3313 436.491V403.356L64.0119 386.788L33.6924 403.356V436.491Z" fill="white" stroke="#334155" stroke-width="3.37378"/>
<path d="M65.6982 384L96.0176 400.568L126.337 384V350.865L96.0176 334.298L65.6982 350.865V384Z" fill="white" stroke="#334155" stroke-width="3.37378"/>
<path d="M33.6924 331.51L64.0119 348.078L94.3313 331.51V298.375L64.0119 281.807L33.6924 298.375V331.51Z" fill="white" stroke="#334155" stroke-width="3.37378"/>
<path d="M65.6982 279.02L96.0176 295.587L126.337 279.02V245.885L96.0176 229.317L65.6982 245.885V279.02Z" fill="white" stroke="#334155" stroke-width="3.37378"/>
<path d="M-30.3203 436.491L-0.000902176 453.059L30.3185 436.491V403.356L-0.000902176 386.788L-30.3203 403.356V436.491Z" fill="white" stroke="#334155" stroke-width="3.37378"/>
<path d="M1.68555 384L32.0049 400.568L62.3244 384V350.865L32.0049 334.298L1.68555 350.865V384Z" fill="white" stroke="#334155" stroke-width="3.37378"/>
<path d="M-30.3203 331.51L-0.000902176 348.078L30.3185 331.51V298.375L-0.000902176 281.807L-30.3203 298.375V331.51Z" fill="white" stroke="#334155" stroke-width="3.37378"/>
<path d="M1.68555 279.02L32.0049 295.587L62.3244 279.02V245.885L32.0049 229.317L1.68555 245.885V279.02Z" fill="white" stroke="#334155" stroke-width="3.37378"/>
<path d="M33.6924 226.529L64.0119 243.097L94.3313 226.529V193.394L64.0119 176.827L33.6924 193.394V226.529Z" fill="white" stroke="#334155" stroke-width="3.37378"/>
<path d="M65.6982 174.039L96.0176 190.607L126.337 174.039V140.904L96.0176 124.336L65.6982 140.904V174.039Z" fill="white" stroke="#334155" stroke-width="3.37378"/>
<path d="M33.6924 121.549L64.0119 138.116L94.3313 121.549V88.4135L64.0119 71.8459L33.6924 88.4135V121.549Z" fill="white" stroke="#334155" stroke-width="3.37378"/>
<path d="M65.6982 69.0584L96.0176 85.6261L126.337 69.0584V35.9232L96.0176 19.3555L65.6982 35.9232V69.0584Z" fill="white" stroke="#334155" stroke-width="3.37378"/>
<path d="M-30.3203 226.529L-0.000902176 243.097L30.3185 226.529V193.394L-0.000902176 176.827L-30.3203 193.394V226.529Z" fill="white" stroke="#334155" stroke-width="3.37378"/>
<path d="M1.68555 174.039L32.0049 190.607L62.3244 174.039V140.904L32.0049 124.336L1.68555 140.904V174.039Z" fill="white" stroke="#334155" stroke-width="3.37378"/>
<path d="M-30.3203 121.549L-0.000902176 138.116L30.3185 121.549V88.4135L-0.000902176 71.8459L-30.3203 88.4135V121.549Z" fill="white" stroke="#334155" stroke-width="3.37378"/>
<path d="M1.68555 69.0584L32.0049 85.6261L62.3244 69.0584V35.9232L32.0049 19.3555L1.68555 35.9232V69.0584Z" fill="white" stroke="#334155" stroke-width="3.37378"/>
<path d="M33.6924 16.5681L64.0119 33.1357L94.3313 16.5681V-16.5672L64.0119 -33.1348L33.6924 -16.5672V16.5681Z" fill="white" stroke="#334155" stroke-width="3.37378"/>
<path d="M-30.3203 16.5681L-0.000902176 33.1357L30.3185 16.5681V-16.5672L-0.000902176 -33.1348L-30.3203 -16.5672V16.5681Z" fill="white" stroke="#334155" stroke-width="3.37378"/>
<path d="M97.7051 16.5681L128.024 33.1357L158.344 16.5681V-16.5672L128.024 -33.1348L97.7051 -16.5672V16.5681Z" fill="white" stroke="#334155" stroke-width="3.37378"/>
</g>
<defs>
<clipPath id="clip0_439_449">
<rect width="1200" height="630" fill="white"/>
</clipPath>
</defs>
</svg>
